<svg width="104" height="100" viewBox="0 0 104 100" fill="none" xmlns="http://www.w3.org/2000/svg">
<path d="M62.5 81.3333C61.3954 81.3333 60.5 82.2288 60.5 83.3333C60.5 84.4379 61.3954 85.3333 62.5 85.3333V81.3333ZM90.7584 78.7832L88.9764 77.8753L88.9764 77.8753L90.7584 78.7832ZM87.1166 82.425L88.0246 84.2071L87.1166 82.425ZM87.1166 17.5749L88.0246 15.7929V15.7929L87.1166 17.5749ZM90.7584 21.2167L88.9764 22.1247L88.9764 22.1247L90.7584 21.2167ZM13.4776 17.301L12.7123 15.4532V15.4532L13.4776 17.301ZM6.33334 29.1667C6.33334 30.2712 7.22877 31.1667 8.33334 31.1667C9.43791 31.1667 10.3333 30.2712 10.3333 29.1667H6.33334ZM8.96768 21.811L7.11992 21.0456L7.11992 21.0456L8.96768 21.811ZM20.8333 18.6667H78.3333V14.6667H20.8333V18.6667ZM89.6667 30V70H93.6667V30H89.6667ZM78.3333 81.3333H62.5V85.3333H78.3333V81.3333ZM89.6667 70C89.6667 72.3665 89.6651 74.0212 89.5598 75.3104C89.4564 76.5764 89.2629 77.3129 88.9764 77.8753L92.5404 79.6912C93.1621 78.471 93.4229 77.1495 93.5465 75.6362C93.6682 74.1462 93.6667 72.3005 93.6667 70H89.6667ZM78.3333 85.3333C80.6339 85.3333 82.4796 85.3349 83.9695 85.2132C85.4828 85.0895 86.8043 84.8288 88.0246 84.2071L86.2086 80.643C85.6463 80.9296 84.9097 81.123 83.6438 81.2264C82.3545 81.3318 80.6999 81.3333 78.3333 81.3333V85.3333ZM88.9764 77.8753C88.3692 79.067 87.4003 80.0358 86.2086 80.643L88.0246 84.2071C89.9689 83.2164 91.5497 81.6356 92.5404 79.6912L88.9764 77.8753ZM78.3333 18.6667C80.6999 18.6667 82.3545 18.6682 83.6438 18.7736C84.9097 18.877 85.6463 19.0704 86.2086 19.357L88.0246 15.7929C86.8043 15.1712 85.4828 14.9105 83.9695 14.7868C82.4796 14.6651 80.6339 14.6667 78.3333 14.6667V18.6667ZM93.6667 30C93.6667 27.6994 93.6682 25.8537 93.5465 24.3638C93.4229 22.8505 93.1621 21.529 92.5404 20.3088L88.9764 22.1247C89.2629 22.6871 89.4564 23.4236 89.5598 24.6895C89.6651 25.9788 89.6667 27.6334 89.6667 30H93.6667ZM86.2086 19.357C87.4003 19.9642 88.3692 20.933 88.9764 22.1247L92.5404 20.3088C91.5497 18.3644 89.9689 16.7836 88.0246 15.7929L86.2086 19.357ZM20.8333 14.6667C18.9193 14.6667 17.3836 14.6656 16.1376 14.7506C14.8736 14.8368 13.7623 15.0183 12.7123 15.4532L14.243 19.1488C14.7244 18.9494 15.3495 18.8137 16.4099 18.7413C17.4881 18.6677 18.8646 18.6667 20.8333 18.6667V14.6667ZM10.3333 29.1667C10.3333 27.1979 10.3344 25.8214 10.408 24.7432C10.4803 23.6829 10.616 23.0577 10.8154 22.5763L7.11992 21.0456C6.68499 22.0956 6.50351 23.2069 6.41727 24.4709C6.33226 25.7169 6.33334 27.2526 6.33334 29.1667H10.3333ZM12.7123 15.4532C10.1803 16.502 8.16869 18.5136 7.11992 21.0456L10.8154 22.5763C11.4582 21.0245 12.6912 19.7916 14.243 19.1488L12.7123 15.4532Z" fill="white"/>
<path d="M38.6667 60C38.6667 65.3388 34.3388 69.6667 29 69.6667C23.6613 69.6667 19.3333 65.3388 19.3333 60C19.3333 54.6613 23.6613 50.3333 29 50.3333C34.3388 50.3333 38.6667 54.6613 38.6667 60Z" stroke="white" stroke-width="4"/>
<path d="M33.8333 39.4939C33.8333 37.4722 32.1945 35.8333 30.1728 35.8333H27.8271C25.8055 35.8333 24.1667 37.4722 24.1667 39.4938C24.1667 42.7549 20.2238 44.388 17.9178 42.082C16.4883 40.6525 14.1706 40.6525 12.7411 42.082L11.0826 43.7405C9.653 45.1701 9.653 47.4879 11.0826 48.9175C13.3887 51.2236 11.7554 55.1667 8.49406 55.1667C6.47231 55.1667 4.83334 56.8056 4.83334 58.8274V61.1728C4.83334 63.1945 6.47223 64.8333 8.49389 64.8333C11.755 64.8333 13.3883 68.7762 11.0823 71.0822C9.65278 72.5117 9.65278 74.8294 11.0823 76.2589L12.7409 77.9175C14.1704 79.3471 16.4882 79.3471 17.9177 77.9175C20.2237 75.6115 24.1667 77.2448 24.1667 80.506C24.1667 82.5277 25.8056 84.1667 27.8273 84.1667H30.1726C32.1944 84.1667 33.8333 82.5277 33.8333 80.5059C33.8333 77.2446 37.7764 75.6113 40.0824 77.9174C41.512 79.3469 43.8298 79.3469 45.2594 77.9174L46.9179 76.2588C48.3474 74.8293 48.3474 72.5116 46.9179 71.0821C44.612 68.7762 46.2451 64.8333 49.5062 64.8333C51.5278 64.8333 53.1667 63.1945 53.1667 61.1729V58.8273C53.1667 56.8056 51.5278 55.1667 49.5061 55.1667C46.2448 55.1667 44.6116 51.2236 46.9176 48.9176C48.3472 47.488 48.3472 45.1702 46.9177 43.7406L45.2592 42.0822C43.8296 40.6526 41.5119 40.6526 40.0823 42.0822C37.7763 44.3882 33.8333 42.755 33.8333 39.4939Z" stroke="white" stroke-width="4"/>
<path d="M72 49.5C72 51.9853 69.9853 54 67.5 54C65.0147 54 63 51.9853 63 49.5C63 47.0147 65.0147 45 67.5 45C69.9853 45 72 47.0147 72 49.5Z" stroke="white" stroke-width="2"/>
<path d="M69.75 39.954C69.75 39.0129 68.9871 38.25 68.046 38.25H66.954C66.0129 38.25 65.25 39.0129 65.25 39.954C65.25 41.4721 63.4145 42.2323 62.3411 41.1589C61.6756 40.4934 60.5967 40.4934 59.9312 41.1589L59.1591 41.9309C58.4936 42.5964 58.4936 43.6754 59.1591 44.3409C60.2327 45.4144 59.4723 47.25 57.9541 47.25C57.013 47.25 56.25 48.013 56.25 48.9541V50.046C56.25 50.9871 57.0129 51.75 57.954 51.75C59.4722 51.75 60.2325 53.5855 59.159 54.659C58.4935 55.3244 58.4935 56.4033 59.159 57.0688L59.9311 57.8409C60.5966 58.5064 61.6755 58.5064 62.341 57.8409C63.4145 56.7674 65.25 57.5278 65.25 59.0459C65.25 59.987 66.0129 60.75 66.9541 60.75H68.0459C68.987 60.75 69.75 59.987 69.75 59.0459C69.75 57.5277 71.5855 56.7673 72.6591 57.8408C73.3246 58.5063 74.4035 58.5063 75.069 57.8408L75.8411 57.0687C76.5066 56.4033 76.5066 55.3244 75.8411 54.6589C74.7676 53.5855 75.5279 51.75 77.046 51.75C77.9871 51.75 78.75 50.9871 78.75 50.046V48.9541C78.75 48.0129 77.9871 47.25 77.0459 47.25C75.5277 47.25 74.7675 45.4145 75.841 44.3409C76.5065 43.6755 76.5065 42.5965 75.841 41.931L75.0689 41.1589C74.4034 40.4935 73.3245 40.4935 72.659 41.1589C71.5855 42.2324 69.75 41.4722 69.75 39.954Z" stroke="white" stroke-width="2"/>
<circle cx="86" cy="22" r="18" fill="#000F20"/>
<circle cx="86" cy="22" r="15.3818" fill="#FFB000"/>
<rect x="81" y="13" width="9" height="18" fill="white"/>
<path fill-rule="evenodd" clip-rule="evenodd" d="M98.8 22C98.8 25.3948 97.4514 28.6505 95.051 31.051C92.6505 33.4514 89.3948 34.8 86 34.8C82.6052 34.8 79.3495 33.4514 76.949 31.051C74.5486 28.6505 73.2 25.3948 73.2 22C73.2 18.6052 74.5486 15.3495 76.949 12.949C79.3495 10.5486 82.6052 9.2 86 9.2C89.3948 9.2 92.6505 10.5486 95.051 12.949C97.4514 15.3495 98.8 18.6052 98.8 22ZM87.6 28.4C87.6 28.8243 87.4314 29.2313 87.1314 29.5314C86.8313 29.8314 86.4244 30 86 30C85.5757 30 85.1687 29.8314 84.8686 29.5314C84.5686 29.2313 84.4 28.8243 84.4 28.4C84.4 27.9757 84.5686 27.5687 84.8686 27.2686C85.1687 26.9686 85.5757 26.8 86 26.8C86.4244 26.8 86.8313 26.9686 87.1314 27.2686C87.4314 27.5687 87.6 27.9757 87.6 28.4ZM86 14C85.5757 14 85.1687 14.1686 84.8686 14.4686C84.5686 14.7687 84.4 15.1757 84.4 15.6V22C84.4 22.4243 84.5686 22.8313 84.8686 23.1314C85.1687 23.4314 85.5757 23.6 86 23.6C86.4244 23.6 86.8313 23.4314 87.1314 23.1314C87.4314 22.8313 87.6 22.4243 87.6 22V15.6C87.6 15.1757 87.4314 14.7687 87.1314 14.4686C86.8313 14.1686 86.4244 14 86 14Z" fill="#FFB000"/>
</svg>
